# xmcd
#
# Track frame offsets:
#	150
#	8301
#	19605
#	32667
#	42121
#	54822
#	62586
#	80153
#	91816
#	103475
#	116578
#	135056
#	150550
#	164869
#	183960
#
# Disc length: 2698 seconds
#
# Revision: 0
# Processed by: cddbd v1.5.1PL0 Copyright (c) Steve Scherf et al.
# Submitted via: dBpowerAMP V4.0
#
DISCID=ac0a880f
DTITLE=Wayne Hancock - A-Town Blues
DYEAR=1900
DGENRE=
TTITLE0=A-Town Blues
TTITLE1=Man of the Road
TTITLE2=Sands of Time
TTITLE3=Miller, Jack and Mad Dog
TTITLE4=Track 49
TTITLE5=Life's Lonesome Road
TTITLE6=Cow Cow Boogie
TTITLE7=Route 23
TTITLE8=Happy Birthday Julie
TTITLE9=California Blues
TTITLE10=Every Time
TTITLE11=Viper
TTITLE12=We Three (My Echo, My Shadow and Me)
TTITLE13=Railroad Blues
TTITLE14=Bonus track
EXTD=
EXTT0=
EXTT1=
EXTT2=
EXTT3=
EXTT4=
EXTT5=
EXTT6=
EXTT7=
EXTT8=
EXTT9=
EXTT10=
EXTT11=
EXTT12=
EXTT13=
EXTT14=
PLAYORDER=
